<?xml version="1.0" encoding="iso-8859-1"?>
<!-- Generator: Adobe Illustrator 16.0.0, SVG Export Plug-In . SVG Version: 6.00 Build 0)  -->
<!DOCTYPE svg PUBLIC "-//W3C//DTD SVG 1.1//EN" "http://www.w3.org/Graphics/SVG/1.1/DTD/svg11.dtd">
<svg version="1.1" id="Layer_1" xmlns="http://www.w3.org/2000/svg" xmlns:xlink="http://www.w3.org/1999/xlink" x="0px" y="0px"
	 width="321.667px" height="38.667px" viewBox="0 0 321.667 38.667" style="enable-background:new 0 0 321.667 38.667;"
	 xml:space="preserve">
<g>
	<path style="fill:none;" d="M48.554,13.556c-1.03,0-1.823,0.359-2.378,1.077c-0.556,0.719-0.833,1.728-0.833,3.028v0.081h6.463
		v-0.081c0-1.301-0.285-2.31-0.854-3.028C50.383,13.915,49.583,13.556,48.554,13.556z"/>
	<path style="fill:none;" d="M75.808,15.649c-0.583-0.691-1.443-1.037-2.581-1.037c-1.22,0-2.094,0.359-2.622,1.077
		c-0.528,0.719-0.833,1.715-0.915,2.988l-0.041,1.26l0.041,1.26c0.082,1.274,0.386,2.271,0.915,2.988s1.402,1.077,2.622,1.077
		c1.165,0,2.032-0.373,2.601-1.118c0.569-0.745,0.88-1.688,0.935-2.825c0.054-0.758,0.081-1.272,0.081-1.545
		c0-0.298-0.027-0.799-0.081-1.504C76.708,17.214,76.39,16.34,75.808,15.649z"/>
	<path style="fill:none;" d="M212.992,15.649c-0.584-0.691-1.443-1.037-2.582-1.037c-1.219,0-2.093,0.359-2.621,1.077
		c-0.529,0.719-0.834,1.715-0.914,2.988l-0.041,1.26l0.041,1.26c0.08,1.274,0.385,2.271,0.914,2.988
		c0.528,0.718,1.402,1.077,2.621,1.077c1.166,0,2.032-0.373,2.603-1.118c0.569-0.745,0.881-1.688,0.935-2.825
		c0.055-0.758,0.082-1.272,0.082-1.545c0-0.298-0.027-0.799-0.082-1.504C213.893,17.214,213.574,16.34,212.992,15.649z"/>
	<path style="fill:none;" d="M151.309,13.556c-1.03,0-1.823,0.359-2.378,1.077c-0.556,0.719-0.833,1.728-0.833,3.028v0.081h6.463
		v-0.081c0-1.301-0.285-2.31-0.854-3.028C153.138,13.915,152.339,13.556,151.309,13.556z"/>
	<path style="fill:none;" d="M104.745,16.162c-0.451-0.216-0.929-0.326-1.421-0.326c-1.265,0-2.435,0.736-2.982,1.875
		c-0.786,1.639-0.09,3.615,1.551,4.4c0.451,0.217,0.93,0.326,1.423,0.326c1.263,0,2.432-0.736,2.978-1.874
		c0.381-0.795,0.43-1.691,0.137-2.522C106.139,17.21,105.54,16.542,104.745,16.162z"/>
	<path style="fill:none;" d="M235.773,13.556c-1.029,0-1.822,0.359-2.378,1.077c-0.556,0.719-0.833,1.728-0.833,3.028v0.081h6.463
		v-0.081c0-1.301-0.283-2.31-0.854-3.028C237.603,13.915,236.802,13.556,235.773,13.556z"/>
	<path style="fill:#45164B;" d="M26.726,8.963c-1.328,0-2.575,0.325-3.74,0.976s-2.073,1.49-2.723,2.52
		c-1.111-2.33-3.157-3.495-6.138-3.495c-1.301,0-2.466,0.271-3.496,0.813c-1.03,0.542-1.87,1.206-2.52,1.992v-1.383
		c0-0.298-0.095-0.541-0.285-0.73C7.634,9.466,7.39,9.371,7.093,9.371H2.378c-0.271,0-0.508,0.095-0.711,0.284
		s-0.305,0.434-0.305,0.73V29.49c0,0.271,0.102,0.51,0.305,0.713c0.204,0.202,0.44,0.305,0.711,0.305H7.5
		c0.298,0,0.542-0.102,0.732-0.305C8.421,30,8.517,29.762,8.517,29.49v-11.3c0-1.22,0.271-2.12,0.813-2.703
		c0.542-0.582,1.233-0.874,2.073-0.874c0.867,0,1.571,0.292,2.114,0.874c0.542,0.583,0.813,1.498,0.813,2.744V29.49
		c0,0.299,0.102,0.543,0.305,0.732c0.203,0.189,0.454,0.283,0.752,0.283h5c0.298,0,0.542-0.102,0.731-0.305s0.285-0.439,0.285-0.711
		V18.23c0-1.246,0.264-2.161,0.792-2.744c0.528-0.582,1.212-0.874,2.053-0.874c0.894,0,1.605,0.292,2.134,0.874
		c0.529,0.583,0.793,1.498,0.793,2.744v11.26c0,0.299,0.102,0.543,0.305,0.731s0.454,0.284,0.752,0.284h5
		c0.298,0,0.542-0.103,0.731-0.305c0.189-0.203,0.285-0.441,0.285-0.713V17.945c0-2.98-0.698-5.223-2.093-6.727
		C30.757,9.715,28.948,8.963,26.726,8.963z"/>
	<path style="fill:#45164B;" d="M54.468,10.365c-1.612-0.936-3.584-1.402-5.914-1.402c-3.225,0-5.786,0.908-7.683,2.723
		c-1.897,1.816-2.9,4.336-3.008,7.561v1.26c0.054,3.389,1.03,5.97,2.927,7.744c1.896,1.774,4.498,2.662,7.804,2.662
		c2.086,0,3.896-0.34,5.427-1.017c1.53-0.679,2.696-1.489,3.496-2.438c0.799-0.949,1.199-1.774,1.199-2.479
		c0-0.217-0.088-0.399-0.264-0.549c-0.177-0.147-0.386-0.224-0.63-0.224h-5.325c-0.325,0-0.563,0.033-0.711,0.102
		c-0.149,0.068-0.345,0.238-0.589,0.509c-0.353,0.406-0.725,0.738-1.118,0.995c-0.393,0.259-0.915,0.387-1.565,0.387
		c-1.003,0-1.775-0.371-2.317-1.117c-0.542-0.746-0.827-1.729-0.854-2.947v-0.243h12.885c0.298,0,0.549-0.103,0.752-0.306
		s0.305-0.453,0.305-0.752v-1.017c0-2.086-0.4-3.949-1.199-5.589S56.08,11.3,54.468,10.365z M51.806,17.742h-6.463v-0.081
		c0-1.301,0.277-2.31,0.833-3.028c0.555-0.718,1.348-1.077,2.378-1.077c1.03,0,1.829,0.359,2.398,1.077
		c0.569,0.719,0.854,1.728,0.854,3.028V17.742z"/>
	<path style="fill:#45164B;" d="M83.023,1.646h-5.244c-0.271,0-0.508,0.096-0.711,0.285c-0.203,0.189-0.305,0.434-0.305,0.731v8.658
		c-1.491-1.571-3.455-2.357-5.894-2.357c-2.602,0-4.661,0.847-6.178,2.54c-1.518,1.694-2.331,4.018-2.439,6.971l-0.041,1.464
		l0.041,1.423c0.108,3.063,0.915,5.42,2.418,7.072c1.504,1.652,3.57,2.479,6.199,2.479c2.737,0,4.837-0.894,6.3-2.683v1.261
		c0,0.27,0.102,0.508,0.305,0.711c0.203,0.203,0.44,0.305,0.711,0.305h4.837c0.298,0,0.549-0.094,0.752-0.283
		s0.305-0.434,0.305-0.732V2.662c0-0.298-0.102-0.542-0.305-0.731S83.321,1.646,83.023,1.646z M76.763,21.319
		c-0.055,1.14-0.366,2.08-0.935,2.825c-0.569,0.745-1.437,1.118-2.601,1.118c-1.22,0-2.094-0.359-2.622-1.077
		c-0.528-0.719-0.833-1.714-0.915-2.988l-0.041-1.26l0.041-1.26c0.082-1.273,0.386-2.27,0.915-2.988
		c0.528-0.718,1.402-1.077,2.622-1.077c1.138,0,1.998,0.346,2.581,1.037c0.582,0.69,0.9,1.564,0.955,2.621
		c0.054,0.705,0.081,1.206,0.081,1.504C76.844,20.046,76.817,20.562,76.763,21.319z"/>
	<path style="fill:#45164B;" d="M137.773,9.369h-1.829c-1.247,0-2.378,0.224-3.395,0.671c-1.016,0.446-1.904,1.091-2.662,1.931
		v-1.545c0-0.298-0.102-0.549-0.305-0.752c-0.203-0.203-0.454-0.305-0.752-0.305h-4.959c-0.298,0-0.542,0.102-0.731,0.305
		c-0.19,0.203-0.285,0.454-0.285,0.752V29.49c0,0.27,0.102,0.508,0.305,0.711c0.204,0.203,0.44,0.305,0.711,0.305h5.366
		c0.298,0,0.549-0.094,0.752-0.283c0.203-0.189,0.305-0.434,0.305-0.732V19.246c0-1.083,0.291-1.924,0.874-2.52
		s1.416-0.895,2.5-0.895h4.105c0.298,0,0.542-0.102,0.731-0.305c0.189-0.203,0.285-0.44,0.285-0.712v-4.431
		c0-0.298-0.095-0.541-0.285-0.731C138.315,9.464,138.071,9.369,137.773,9.369z"/>
	<path style="fill:#45164B;" d="M157.223,10.365c-1.612-0.936-3.584-1.402-5.914-1.402c-3.225,0-5.786,0.908-7.683,2.723
		c-1.897,1.816-2.9,4.336-3.008,7.561v1.26c0.054,3.389,1.03,5.97,2.927,7.744c1.896,1.774,4.498,2.662,7.804,2.662
		c2.086,0,3.896-0.34,5.427-1.017c1.53-0.679,2.696-1.489,3.496-2.438c0.799-0.949,1.199-1.774,1.199-2.479
		c0-0.217-0.089-0.399-0.264-0.549c-0.177-0.147-0.386-0.224-0.63-0.224h-5.325c-0.325,0-0.563,0.033-0.711,0.102
		c-0.149,0.068-0.345,0.238-0.589,0.509c-0.353,0.406-0.725,0.738-1.118,0.995c-0.393,0.259-0.915,0.387-1.565,0.387
		c-1.003,0-1.775-0.371-2.317-1.117s-0.827-1.729-0.854-2.947v-0.243h12.885c0.298,0,0.55-0.103,0.752-0.306
		c0.203-0.203,0.306-0.453,0.306-0.752v-1.017c0-2.086-0.4-3.949-1.2-5.589C160.042,12.588,158.835,11.3,157.223,10.365z
		 M154.561,17.742h-6.463v-0.081c0-1.301,0.277-2.31,0.833-3.028c0.555-0.718,1.348-1.077,2.378-1.077
		c1.03,0,1.829,0.359,2.398,1.077c0.569,0.719,0.854,1.728,0.854,3.028V17.742z"/>
	<path style="fill:#45164B;" d="M177.242,17.661c-1.464-0.271-2.555-0.528-3.271-0.772c-0.719-0.244-1.192-0.494-1.424-0.752
		c-0.229-0.257-0.344-0.589-0.344-0.996c0-0.46,0.188-0.839,0.567-1.138c0.379-0.298,0.907-0.447,1.585-0.447
		c0.568,0,1.037,0.088,1.402,0.265c0.365,0.176,0.793,0.427,1.279,0.752c0.325,0.243,0.65,0.446,0.977,0.609
		c0.136,0.108,0.324,0.162,0.568,0.162h4.473c0.242,0,0.453-0.094,0.63-0.284c0.176-0.189,0.265-0.406,0.265-0.65
		c0-0.704-0.38-1.483-1.139-2.337c-0.76-0.854-1.863-1.586-3.313-2.195c-1.451-0.609-3.164-0.914-5.144-0.914
		c-1.951,0-3.625,0.312-5.021,0.935c-1.396,0.624-2.453,1.443-3.17,2.459c-0.719,1.017-1.078,2.08-1.078,3.191
		c0,3.388,2.345,5.555,7.033,6.503c1.463,0.271,2.553,0.535,3.271,0.793c0.718,0.258,1.205,0.521,1.463,0.793
		s0.387,0.623,0.387,1.057c0,0.516-0.238,0.914-0.712,1.199c-0.476,0.283-1.077,0.427-1.81,0.427c-0.623,0-1.157-0.103-1.604-0.305
		c-0.446-0.204-0.929-0.494-1.442-0.874c-0.055-0.055-0.313-0.23-0.772-0.527c-0.108-0.109-0.244-0.164-0.407-0.164h-4.918
		c-0.244,0-0.467,0.09-0.67,0.266s-0.305,0.398-0.305,0.67c0,0.705,0.359,1.49,1.076,2.357c0.719,0.867,1.822,1.612,3.314,2.235
		c1.489,0.623,3.346,0.935,5.567,0.935c3.252,0,5.778-0.603,7.581-1.809c1.802-1.205,2.703-2.825,2.703-4.857
		c0-1.57-0.604-2.947-1.809-4.125C181.828,18.941,179.897,18.122,177.242,17.661z"/>
	<path style="fill:#45164B;" d="M194.436,9.369h-5.081c-0.271,0-0.508,0.095-0.711,0.284c-0.203,0.19-0.305,0.434-0.305,0.731
		v19.104c0,0.271,0.102,0.51,0.305,0.713c0.203,0.202,0.439,0.305,0.711,0.305h5.081c0.298,0,0.549-0.096,0.752-0.284
		s0.306-0.435,0.306-0.731V10.385c0-0.298-0.103-0.541-0.306-0.731C194.984,9.464,194.733,9.369,194.436,9.369z"/>
	<path style="fill:#45164B;" d="M194.436,0.549h-5.081c-0.271,0-0.508,0.102-0.711,0.305s-0.305,0.454-0.305,0.752v3.78
		c0,0.298,0.094,0.549,0.283,0.752c0.189,0.203,0.434,0.305,0.731,0.305h5.081c0.298,0,0.549-0.102,0.752-0.305
		c0.203-0.203,0.305-0.454,0.305-0.752v-3.78c0-0.298-0.102-0.549-0.305-0.752S194.733,0.549,194.436,0.549z"/>
	<path style="fill:#45164B;" d="M220.207,1.646h-5.244c-0.271,0-0.508,0.096-0.711,0.285s-0.306,0.434-0.306,0.731v8.658
		c-1.489-1.571-3.454-2.357-5.894-2.357c-2.602,0-4.661,0.847-6.18,2.54c-1.518,1.694-2.33,4.018-2.438,6.971l-0.041,1.464
		l0.041,1.423c0.107,3.063,0.914,5.42,2.419,7.072c1.504,1.652,3.569,2.479,6.198,2.479c2.736,0,4.837-0.894,6.301-2.683v1.261
		c0,0.27,0.102,0.508,0.305,0.711s0.44,0.305,0.711,0.305h4.838c0.299,0,0.549-0.094,0.752-0.283s0.306-0.434,0.306-0.732V2.662
		c0-0.298-0.103-0.542-0.306-0.731C220.755,1.741,220.505,1.646,220.207,1.646z M213.946,21.319c-0.054,1.14-0.364,2.08-0.935,2.825
		s-1.438,1.118-2.602,1.118c-1.22,0-2.094-0.359-2.621-1.077c-0.529-0.719-0.834-1.714-0.916-2.988l-0.041-1.26l0.041-1.26
		c0.082-1.273,0.387-2.27,0.916-2.988c0.527-0.718,1.401-1.077,2.621-1.077c1.139,0,1.998,0.346,2.58,1.037
		c0.584,0.69,0.901,1.564,0.955,2.621c0.055,0.705,0.082,1.206,0.082,1.504C214.028,20.046,214.001,20.562,213.946,21.319z"/>
	<path style="fill:#45164B;" d="M241.688,10.365c-1.612-0.936-3.584-1.402-5.914-1.402c-3.226,0-5.786,0.908-7.683,2.723
		c-1.896,1.816-2.899,4.336-3.008,7.561v1.26c0.054,3.389,1.028,5.97,2.926,7.744c1.896,1.774,4.498,2.662,7.806,2.662
		c2.086,0,3.896-0.34,5.427-1.017c1.53-0.679,2.695-1.489,3.495-2.438s1.199-1.774,1.199-2.479c0-0.217-0.089-0.399-0.265-0.549
		c-0.176-0.147-0.387-0.224-0.631-0.224h-5.324c-0.324,0-0.563,0.033-0.711,0.102c-0.149,0.068-0.346,0.238-0.59,0.509
		c-0.353,0.406-0.726,0.738-1.117,0.995c-0.395,0.259-0.916,0.387-1.565,0.387c-1.003,0-1.774-0.371-2.315-1.117
		c-0.543-0.746-0.828-1.729-0.854-2.947v-0.243h12.886c0.297,0,0.549-0.103,0.752-0.306s0.305-0.453,0.305-0.752v-1.017
		c0-2.086-0.399-3.949-1.198-5.589C244.505,12.587,243.3,11.3,241.688,10.365z M239.025,17.742h-6.463v-0.081
		c0-1.301,0.277-2.31,0.833-3.028c0.556-0.718,1.349-1.077,2.378-1.077s1.829,0.359,2.398,1.077
		c0.568,0.719,0.854,1.728,0.854,3.028V17.742z"/>
	<path style="fill:#45164B;" d="M268.108,10.02c-1.206-0.704-2.581-1.057-4.126-1.057c-1.49,0-2.813,0.271-3.963,0.813
		c-1.152,0.542-2.094,1.26-2.825,2.154v-1.545c0-0.298-0.095-0.541-0.284-0.731c-0.189-0.189-0.434-0.284-0.73-0.284h-5
		c-0.271,0-0.508,0.095-0.711,0.284c-0.203,0.19-0.305,0.434-0.305,0.731V29.49c0,0.27,0.102,0.508,0.305,0.711
		s0.439,0.305,0.711,0.305h5.406c0.297,0,0.541-0.102,0.73-0.305s0.285-0.439,0.285-0.711V18.393c0-1.192,0.311-2.12,0.936-2.784
		c0.623-0.664,1.477-0.996,2.561-0.996c1.111,0,1.958,0.325,2.541,0.976c0.582,0.65,0.873,1.586,0.873,2.805v11.098
		c0,0.299,0.103,0.543,0.306,0.731s0.453,0.284,0.752,0.284h5.406c0.298,0,0.541-0.102,0.731-0.305
		c0.188-0.203,0.283-0.44,0.283-0.713V18.148c0-1.95-0.346-3.617-1.035-4.999C270.263,11.768,269.314,10.725,268.108,10.02z"/>
	<path style="fill:#45164B;" d="M286.419,14.369c0.731,0,1.334,0.176,1.81,0.528c0.474,0.353,0.86,0.908,1.157,1.666
		c0.137,0.299,0.285,0.516,0.447,0.65c0.164,0.136,0.394,0.203,0.691,0.203h5.446c0.298,0,0.556-0.102,0.772-0.305
		c0.215-0.203,0.312-0.453,0.284-0.752c-0.055-0.948-0.476-1.998-1.261-3.15c-0.786-1.151-1.979-2.147-3.577-2.987
		c-1.599-0.84-3.575-1.26-5.935-1.26c-3.09,0-5.596,0.826-7.521,2.479s-2.94,3.942-3.049,6.869l-0.04,1.667l0.04,1.625
		c0.136,2.927,1.159,5.21,3.069,6.851c1.91,1.639,4.41,2.459,7.498,2.459c2.439,0,4.473-0.447,6.099-1.342s2.812-1.931,3.558-3.109
		c0.744-1.18,1.117-2.188,1.117-3.027c0-0.271-0.109-0.502-0.324-0.691c-0.219-0.189-0.463-0.283-0.732-0.283h-5.446
		c-0.299,0-0.528,0.066-0.69,0.203c-0.162,0.135-0.313,0.353-0.447,0.649c-0.299,0.786-0.67,1.349-1.117,1.687
		c-0.447,0.34-1.064,0.508-1.85,0.508c-1.058,0-1.856-0.33-2.398-0.994s-0.827-1.7-0.854-3.11l-0.041-1.341l0.041-1.545
		C283.25,15.751,284.333,14.369,286.419,14.369z"/>
	<path style="fill:#45164B;" d="M321.031,9.633c-0.176-0.176-0.386-0.264-0.63-0.264h-4.796c-0.543,0-0.949,0.284-1.221,0.854
		l-4.633,11.544l-4.512-11.544c-0.219-0.569-0.611-0.854-1.18-0.854h-4.838c-0.243,0-0.454,0.088-0.631,0.264
		c-0.176,0.177-0.291,0.4-0.346,0.671c0,0.081,0.041,0.23,0.123,0.447l7.805,18.454l-3.211,7.643
		c-0.055,0.162-0.082,0.339-0.082,0.527c0,0.244,0.082,0.447,0.244,0.61c0.162,0.162,0.365,0.243,0.609,0.243h4.715
		c0.569,0,0.989-0.284,1.26-0.854l11.504-26.625c0.055-0.162,0.082-0.339,0.082-0.528C321.296,10.006,321.208,9.81,321.031,9.633z"
		/>
	<path style="fill:#FF4043;" d="M106.907,11.653c-1.13-0.542-2.335-0.817-3.583-0.817c-3.176,0-6.116,1.85-7.49,4.713
		c-1.978,4.126-0.229,9.092,3.897,11.072c1.131,0.541,2.337,0.816,3.585,0.816c3.176,0,6.114-1.85,7.487-4.713
		c0.958-1.999,1.081-4.252,0.345-6.343C110.412,14.291,108.906,12.611,106.907,11.653z M106.294,20.564
		c-0.546,1.139-1.715,1.874-2.978,1.874c-0.494,0-0.973-0.11-1.423-0.326c-1.641-0.786-2.336-2.761-1.551-4.4
		c0.547-1.139,1.717-1.875,2.982-1.875c0.493,0,0.971,0.109,1.421,0.326c0.795,0.381,1.394,1.049,1.686,1.88
		C106.724,18.873,106.675,19.769,106.294,20.564z"/>
</g>
</svg>
